<?xml version="1.0" standalone="no"?>
<!DOCTYPE svg PUBLIC "-//W3C//DTD SVG 20010904//EN"
 "http://www.w3.org/TR/2001/REC-SVG-20010904/DTD/svg10.dtd">
<svg version="1.0" xmlns="http://www.w3.org/2000/svg"
 width="1024.000000pt" height="1024.000000pt" viewBox="0 0 1024.000000 1024.000000"
 preserveAspectRatio="xMidYMid meet">
<metadata>
Created by potrace 1.16, written by Peter Selinger 2001-2019
</metadata>
<g transform="translate(0.000000,1024.000000) scale(0.100000,-0.100000)"
fill="#000000" stroke="none">
<path d="M6879 9755 c-4 -5 -19 -48 -33 -95 -15 -47 -54 -167 -87 -266 -32
-100 -59 -187 -59 -193 0 -6 11 -13 25 -17 30 -7 32 -31 11 -139 -8 -38 -12
-74 -9 -78 6 -10 -24 -193 -48 -290 -11 -43 -24 -119 -28 -170 -5 -50 -14
-103 -19 -118 -6 -14 -8 -37 -5 -53 3 -15 -6 -93 -20 -174 -14 -81 -31 -187
-37 -237 -6 -49 -20 -128 -30 -175 -18 -82 -48 -313 -90 -700 -29 -271 -21
-246 -83 -256 -43 -7 -54 -14 -65 -37 -12 -24 -11 -31 2 -51 14 -22 13 -25 -4
-41 -26 -23 -25 -49 1 -73 14 -14 18 -27 14 -44 -4 -15 -1 -29 8 -36 8 -7 12
-23 10 -36 -4 -17 3 -29 22 -44 l27 -22 -16 -127 c-9 -71 -26 -196 -36 -278
-10 -83 -26 -198 -34 -255 -8 -58 -25 -193 -36 -300 -19 -177 -43 -375 -70
-580 -16 -118 -68 -542 -85 -685 -20 -169 -53 -449 -66 -550 -5 -44 -18 -161
-29 -260 -12 -99 -25 -207 -30 -240 -5 -33 -8 -67 -7 -75 2 -15 -91 -210 -105
-220 -3 -3 -9 -34 -13 -70 -4 -36 -15 -94 -25 -130 -10 -36 -21 -83 -25 -105
-9 -54 -21 -29 -30 65 -8 87 -29 198 -40 208 -4 4 -5 -11 -2 -32 4 -22 3 -81
0 -133 -5 -76 -9 -93 -21 -91 -9 2 -22 23 -30 48 -82 255 -159 427 -212 475
-14 13 -10 1 14 -39 52 -86 95 -196 127 -325 16 -63 28 -115 26 -117 -1 -2
-13 16 -26 40 -12 24 -34 49 -47 55 -30 13 -37 14 -30 2 4 -5 0 -12 -6 -14 -9
-4 -8 -6 2 -6 32 -2 137 -197 117 -217 -6 -6 -52 57 -52 71 0 6 -5 10 -12 10
-7 0 -43 28 -81 62 -95 84 -222 185 -222 175 0 -4 5 -13 12 -20 17 -17 3 -15
-40 7 -60 30 -82 35 -82 17 0 -9 -6 -16 -12 -17 -7 0 16 -9 52 -21 83 -26 98
-37 74 -55 -16 -11 -12 -13 29 -13 35 0 52 -6 73 -25 l27 -25 -27 0 c-34 0
-25 -16 13 -25 39 -8 174 -123 167 -142 -3 -8 -2 -12 3 -8 10 6 80 -84 86
-112 2 -10 9 -33 14 -52 14 -46 8 -49 -17 -9 -12 18 -29 38 -40 45 -18 11 -17
7 4 -45 37 -89 28 -95 -17 -12 -22 41 -47 82 -55 90 -14 13 -15 10 -10 -30 2
-25 5 -51 5 -58 1 -7 5 -11 10 -8 8 5 19 -20 27 -64 3 -17 -32 26 -41 50 -7
16 -155 123 -162 117 -2 -3 19 -21 47 -42 51 -37 63 -52 33 -41 -16 6 -83 -10
-93 -23 -3 -4 -27 -18 -54 -31 -27 -14 -66 -41 -87 -61 -34 -32 -40 -34 -54
-20 -13 13 -16 13 -30 -4 -8 -11 -15 -29 -15 -41 0 -45 -25 -59 -101 -56 l-36
2 10 45 c6 25 15 42 20 38 6 -3 7 -2 4 4 -6 9 2 47 22 111 14 46 -1 32 -29
-27 -12 -28 -28 -47 -33 -44 -6 3 -7 1 -3 -5 4 -6 -7 -43 -24 -83 -16 -39 -30
-75 -30 -79 0 -5 -4 -20 -10 -35 l-10 -26 -39 21 c-22 11 -47 20 -56 20 -8 0
-15 5 -15 11 0 21 -45 4 -48 -18 -2 -13 -10 -23 -18 -23 -10 0 -14 12 -14 43
0 31 -3 38 -10 27 -5 -8 -10 -31 -10 -51 0 -24 -7 -42 -21 -55 -12 -10 -23
-18 -25 -16 -12 7 -24 0 -25 -15 0 -10 -3 -13 -5 -7 -5 12 92 178 138 235 17
22 39 39 49 39 10 0 20 4 23 9 3 5 16 7 29 5 12 -2 16 -2 10 2 -10 4 -9 9 3
21 8 9 13 21 10 28 -3 9 8 15 31 20 79 15 100 38 54 61 -12 6 -22 15 -22 20 0
5 -7 8 -15 6 -11 -2 -12 2 -4 23 6 15 10 27 10 29 0 1 -20 1 -45 0 -25 -1 -45
2 -45 7 0 5 -8 9 -17 8 -11 0 -13 -3 -5 -6 6 -2 12 -18 12 -34 0 -17 7 -44 16
-60 8 -17 13 -33 10 -37 -3 -3 -6 -1 -6 5 0 12 -78 12 -98 0 -6 -5 -12 -4 -12
2 0 5 5 13 10 16 16 10 12 40 -8 58 -21 19 -139 37 -128 19 3 -6 -2 -13 -11
-15 -17 -4 -17 -5 0 -6 10 0 35 -12 55 -26 20 -14 42 -25 49 -25 6 0 15 -5 19
-11 4 -7 -1 -9 -15 -5 -11 3 -31 8 -43 11 -21 4 -21 4 2 -8 14 -6 26 -20 28
-29 2 -13 -9 -18 -55 -24 -55 -6 -142 -46 -188 -84 -11 -9 -29 -20 -39 -24
-16 -5 -17 -4 -6 9 18 22 -5 49 -30 35 -22 -12 -36 -60 -20 -70 8 -5 -3 -23
-29 -54 -36 -42 -41 -45 -41 -24 0 13 5 29 11 35 8 8 8 13 0 17 -6 4 -11 12
-11 17 0 6 4 8 9 4 10 -6 41 21 41 36 0 5 -9 9 -20 9 -28 0 -25 17 8 35 l27
16 -35 -6 -35 -6 26 17 c26 17 67 74 53 74 -3 0 -1 7 6 15 10 12 9 15 -4 15
-10 0 -26 -5 -37 -10 -32 -18 -21 4 14 25 20 13 33 30 35 47 3 25 2 26 -32 18
-46 -10 -38 7 19 42 25 15 45 32 45 38 0 6 -5 8 -12 4 -8 -5 -9 -2 -5 10 4 10
1 19 -7 22 -17 6 -15 26 3 48 7 9 11 22 8 30 -3 7 0 19 6 25 9 9 8 14 -3 21
-13 9 -13 11 0 21 12 8 7 9 -18 6 -25 -3 -32 0 -27 10 3 8 5 16 5 19 0 2 7 1
16 -3 12 -4 15 -2 12 8 -3 8 4 28 16 44 38 52 41 59 22 52 -15 -6 -17 -3 -12
18 4 14 2 25 -3 25 -5 0 -12 8 -14 18 -3 9 -5 4 -6 -13 -1 -16 -6 -37 -11 -45
-7 -11 -9 -2 -5 30 l5 45 -14 -50 c-7 -27 -14 -41 -15 -30 -2 19 -3 19 -15 3
-7 -10 -16 -15 -19 -11 -4 3 -7 -1 -7 -11 0 -9 -5 -14 -10 -11 -6 4 -10 3 -9
-2 3 -20 -2 -56 -7 -50 -9 9 -34 -19 -34 -37 0 -8 -13 -25 -30 -38 -36 -27
-45 -50 -29 -80 12 -22 11 -22 -6 -8 -17 14 -18 13 -13 -8 4 -12 3 -20 0 -18
-4 2 -12 -2 -19 -9 -10 -11 -10 -15 0 -19 8 -3 7 -8 -5 -16 -10 -6 -18 -21
-19 -33 0 -21 -1 -21 -10 -2 -6 15 -8 6 -6 -32 1 -28 -1 -50 -4 -48 -3 2 -16
-37 -28 -88 -30 -121 -30 -122 -20 -139 5 -9 1 -25 -11 -44 -24 -36 -24 -41 0
103 11 65 20 129 19 143 -1 24 -1 23 -10 -5 -5 -16 -14 -52 -19 -79 -13 -66
-71 -250 -81 -256 -4 -3 -14 -44 -23 -92 -17 -98 -32 -136 -48 -120 -11 11 29
278 62 412 22 87 45 259 36 267 -3 4 -6 -3 -6 -15 0 -12 -16 -84 -36 -160 -20
-75 -40 -155 -46 -177 -5 -22 -19 -71 -30 -110 -21 -69 -22 -69 -30 -38 -5 20
-15 33 -24 33 -11 0 -14 5 -9 17 4 10 8 24 8 31 0 6 4 12 9 12 4 0 8 7 8 16 0
13 -7 15 -36 9 l-37 -6 7 43 c13 87 13 83 -16 80 -26 -3 -28 -1 -28 36 0 27
-5 42 -16 46 -9 4 -13 13 -10 23 7 22 -2 36 -32 52 -16 9 -21 18 -17 29 25 60
9 128 -20 88 -10 -14 -13 -8 -14 35 0 28 4 59 9 68 6 13 4 25 -8 42 l-17 24
-6 -35 -6 -35 -2 38 c0 23 -5 36 -11 32 -5 -3 -10 -2 -10 3 0 5 -7 9 -16 9
-12 0 -14 -8 -10 -36 4 -24 -2 -14 -17 29 -35 97 -108 258 -123 271 -8 6 -6
-4 5 -28 24 -50 74 -189 102 -283 12 -41 26 -80 31 -87 5 -7 8 -20 6 -29 -2
-10 -17 18 -34 61 -17 43 -36 81 -42 83 -22 7 -12 -32 21 -88 38 -63 56 -109
49 -128 -4 -13 -10 -5 -66 100 -39 72 -74 118 -92 118 -7 0 -14 -8 -14 -17 0
-14 -4 -12 -25 7 -27 25 -47 21 -25 -5 21 -25 5 -27 -25 -3 -23 18 -28 19 -22
5 3 -9 2 -17 -3 -17 -6 0 -10 5 -10 10 0 6 -4 10 -10 10 -13 0 -7 -34 9 -54
12 -14 10 -16 -10 -16 -13 0 -37 -9 -54 -20 l-30 -20 25 -1 25 0 -23 -11 c-55
-27 -5 -34 84 -12 17 4 23 0 28 -19 5 -21 14 -26 56 -32 27 -4 47 -11 44 -16
-3 -5 2 -9 10 -9 9 0 16 -4 16 -10 0 -5 -11 -10 -25 -10 -14 0 -25 -4 -25 -10
0 -5 7 -10 15 -10 18 0 20 -41 3 -58 -9 -9 -8 -12 5 -12 9 0 17 -4 17 -10 0
-5 6 -10 13 -10 6 0 18 -12 25 -27 10 -24 10 -28 -5 -37 -16 -9 -15 -11 7 -16
14 -3 30 -16 35 -28 6 -15 16 -21 27 -18 10 2 20 0 23 -5 3 -4 -7 -12 -22 -15
l-28 -7 33 -14 c34 -14 37 -20 22 -43 -6 -10 -10 -11 -10 -2 0 6 -7 12 -15 12
-13 0 -13 -3 -3 -21 10 -17 10 -23 1 -26 -7 -2 -9 -12 -6 -21 3 -9 -10 1 -30
23 -20 22 -36 34 -37 27 0 -25 -26 -5 -53 43 -15 27 -37 59 -47 70 -21 22 -18
37 5 29 7 -3 16 -1 20 5 4 7 -6 11 -27 11 -24 1 -42 10 -68 35 -38 39 -45 41
-66 20 -25 -25 -32 -18 -44 43 -10 56 -66 242 -81 272 -4 8 -29 67 -55 130
-26 63 -64 149 -85 191 -37 74 -39 76 -81 82 -23 3 -44 4 -46 2 -13 -12 16
-71 59 -120 27 -31 49 -61 49 -66 0 -6 13 -22 29 -37 24 -23 66 -123 75 -178
1 -7 7 -18 13 -25 12 -16 75 -205 98 -296 8 -34 18 -68 21 -76 4 -11 -13 -13
-83 -13 -75 1 -88 3 -91 19 -2 9 2 17 10 18 7 0 34 10 59 22 40 19 45 24 32
36 -17 15 -106 8 -111 -9 -2 -6 -17 -10 -32 -10 -16 0 -31 -4 -34 -9 -3 -4
-18 -6 -33 -3 -19 3 -25 1 -18 -5 13 -13 96 -33 108 -26 5 3 7 -3 5 -13 -4
-25 -39 -29 -108 -14 -84 18 -87 19 -93 40 -3 12 -14 20 -27 20 -12 0 -30 5
-40 10 -15 8 -24 6 -38 -8 -18 -18 -19 -18 -29 18 l-10 37 56 26 c31 14 68 30
84 36 26 10 50 47 40 63 -7 14 -83 -32 -83 -50 -1 -16 -2 -16 -14 1 -8 10 -20
16 -27 15 -16 -4 -45 -31 -52 -49 -3 -8 -6 2 -6 23 -1 31 3 37 28 46 43 15 71
48 71 82 0 17 7 46 14 65 13 31 13 35 0 35 -8 0 -12 -4 -9 -10 16 -26 -50
-100 -103 -113 -25 -6 -23 -12 -47 122 -15 83 -39 141 -62 148 -8 3 -8 -7 2
-39 7 -24 16 -62 19 -85 7 -39 6 -41 -13 -36 -12 3 -21 10 -21 15 0 5 5 6 11
2 7 -4 10 -1 7 6 -5 15 -30 27 -27 13 5 -28 -4 -33 -61 -33 -45 0 -60 -3 -60
-14 0 -20 48 -56 75 -56 36 0 85 21 85 36 0 27 18 13 34 -26 19 -48 20 -58 4
-42 -19 19 -97 15 -105 -4 -10 -28 12 -48 63 -59 92 -19 101 -42 14 -37 -51 3
-61 1 -67 -15 -5 -10 -15 -19 -23 -21 -28 -5 -70 -24 -70 -32 0 -4 10 -12 23
-17 18 -8 31 -7 59 7 26 12 51 16 87 12 45 -4 52 -8 57 -31 3 -14 7 -32 10
-38 4 -15 -12 -17 -21 -3 -12 19 -60 10 -84 -15 -13 -14 -27 -25 -31 -25 -5 0
-10 -6 -12 -14 -2 -10 -23 4 -63 40 -33 31 -79 70 -103 88 l-43 32 -3 269 c-3
196 -8 295 -20 360 -16 86 -55 230 -61 223 -1 -2 3 -43 10 -92 22 -146 28
-349 15 -531 -6 -93 -13 -171 -15 -174 -3 -2 -28 16 -57 40 -116 97 -209 159
-239 159 -7 0 -9 -11 -5 -34 5 -24 2 -37 -9 -46 -8 -7 -15 -24 -15 -39 l-1
-26 -27 35 c-41 54 -124 133 -162 155 -52 29 -53 29 -35 1 14 -20 14 -26 4
-27 -27 -1 -63 -10 -68 -16 -3 -3 4 -3 17 0 19 4 22 2 18 -10 -5 -12 -3 -13 6
-6 16 12 49 13 42 1 -3 -5 -10 -6 -15 -3 -5 4 -9 2 -9 -4 0 -6 13 -14 29 -18
27 -7 171 -152 171 -171 0 -4 -5 -25 -10 -47 -5 -22 -9 -87 -9 -145 1 -173 -1
-192 -19 -206 -35 -27 -71 -6 -73 43 0 15 -4 37 -8 48 -6 14 -10 5 -15 -35 -4
-30 -8 -63 -8 -73 1 -9 -3 -17 -8 -17 -4 0 -6 -18 -3 -40 6 -39 0 -47 -23 -32
-17 10 -16 162 1 189 11 15 11 21 2 19 -27 -4 -37 -19 -37 -60 0 -29 -4 -43
-13 -43 -10 0 -21 36 -35 111 -12 61 -26 134 -31 161 l-10 50 5 -60 5 -60 -25
55 c-14 30 -26 64 -26 75 -1 11 -4 15 -6 8 -3 -6 4 -40 14 -75 11 -35 23 -88
27 -118 3 -30 9 -63 11 -73 8 -28 -22 -31 -50 -5 -28 25 -24 41 14 58 21 9 18
10 -20 6 -25 -3 -50 -2 -55 2 -16 11 -36 78 -29 96 4 11 1 16 -13 16 -26 0
-64 83 -59 130 1 19 24 75 50 124 34 65 44 92 36 100 -8 8 -14 6 -22 -8 -16
-29 -67 -82 -68 -70 0 6 9 46 20 89 19 73 65 164 100 193 13 11 12 11 -7 3
-19 -9 -22 -8 -26 12 -3 16 -5 14 -6 -9 0 -17 -10 -43 -21 -57 -11 -14 -20
-30 -20 -36 0 -17 -9 -13 -36 17 l-26 27 8 -25 c9 -32 9 -88 -1 -170 -9 -77
-20 -106 -68 -182 -21 -31 -37 -61 -37 -67 0 -5 -4 -12 -9 -15 -5 -4 -7 3 -4
14 4 16 0 20 -18 21 -13 1 -27 1 -30 1 -4 -1 -5 12 -3 28 2 16 -1 32 -6 35 -6
3 -11 30 -12 58 l-2 52 -3 -50 c-3 -35 -7 -45 -13 -35 -7 11 -10 5 -10 -21 0
-22 -7 -42 -18 -52 -23 -21 -32 -21 -32 -2 0 8 -4 15 -10 15 -15 0 -12 -47 5
-80 15 -28 14 -30 -4 -30 -20 0 -24 8 -36 67 -4 18 -16 40 -28 48 -20 14 -22
24 -22 95 1 43 -1 77 -3 75 -5 -5 -29 -134 -36 -195 -2 -19 -9 -55 -15 -80 -6
-25 -11 -65 -12 -90 -1 -25 -3 -37 -6 -28 -2 10 -15 38 -29 63 -13 25 -24 52
-24 60 0 7 -3 15 -7 17 -5 2 -17 20 -27 41 -21 40 -36 34 -28 -11 4 -25 1 -24
-41 19 -24 25 -54 53 -67 62 -17 12 -21 21 -16 42 9 36 48 49 109 37 51 -10
61 -7 165 60 15 9 33 17 39 17 12 1 59 41 48 41 -3 0 -22 -9 -42 -20 -21 -11
-42 -20 -48 -20 -5 -1 -32 -16 -60 -35 -47 -32 -71 -32 -58 0 2 7 -8 16 -24
20 -33 8 -183 17 -269 16 l-61 -1 -31 48 c-38 58 -132 165 -140 158 -3 -3 13
-32 35 -63 44 -64 97 -172 88 -181 -3 -3 -5 0 -5 6 0 6 -13 9 -31 7 -47 -6
-45 -12 6 -19 37 -6 48 -13 62 -39 23 -45 122 -340 116 -349 -2 -5 -21 -8 -43
-8 -33 0 -37 -3 -33 -20 3 -11 9 -18 13 -15 5 3 6 -4 3 -15 -5 -18 -8 -15 -25
16 -12 23 -16 40 -10 47 13 17 21 67 11 67 -5 0 -9 -12 -9 -26 0 -42 -21 -23
-47 44 -21 52 -29 62 -44 57 -13 -5 -19 -1 -19 10 0 11 -5 15 -14 12 -10 -4
-22 9 -37 39 -26 54 -35 52 -19 -5 11 -42 5 -75 -10 -51 -11 17 -63 21 -56 4
3 -8 2 -14 -2 -14 -5 0 -16 -23 -26 -50 -10 -28 -20 -50 -21 -48 -6 6 81 377
102 435 5 16 4 16 -9 3 -17 -17 -68 -137 -119 -277 -19 -51 -37 -93 -41 -93
-4 0 -3 12 2 26 6 14 8 30 4 35 -3 5 0 9 5 9 6 0 11 3 11 8 0 9 -49 32 -68 32
-7 0 -10 4 -7 10 3 6 1 10 -5 10 -19 0 -1 79 31 140 71 134 214 302 411 485
54 50 68 70 86 124 29 85 64 143 109 179 64 50 160 92 257 113 50 11 138 35
196 53 97 32 120 35 300 44 157 8 209 14 265 32 63 21 91 23 280 24 174 1 216
4 248 18 20 9 37 13 37 7 0 -5 17 -9 37 -9 21 1 111 0 200 -2 88 -2 159 0 156
5 -2 4 17 7 44 7 35 0 44 -3 33 -10 -8 -5 -10 -10 -5 -10 6 0 17 6 24 12 11
10 13 10 7 1 -5 -9 0 -13 16 -13 17 0 19 3 10 9 -20 12 45 22 136 21 114 -2
119 -1 126 16 5 12 -1 15 -32 13 -20 -1 -55 -1 -77 0 -39 3 -40 3 -10 11 23 6
25 8 8 9 -26 1 -42 21 -17 21 26 0 10 11 -22 15 -41 5 -42 6 -14 15 18 6 8 8
-39 9 -57 1 -63 3 -58 20 3 15 -2 21 -22 26 -23 7 -24 8 -7 14 18 7 18 8 2 14
-10 4 -26 2 -36 -3 -22 -12 -40 -13 -39 -2 3 19 -2 26 -10 13 -5 -8 -14 -10
-21 -6 -7 4 -30 9 -52 11 -42 3 -64 13 -32 15 10 1 23 1 27 0 5 -1 7 4 4 11
-5 14 -8 14 -47 3 -17 -4 -21 -3 -11 3 8 6 10 15 6 23 -6 9 -4 11 8 6 9 -3 19
-2 22 4 4 5 21 7 39 4 23 -5 36 -2 45 9 11 14 11 16 -3 16 -10 0 -14 5 -11 10
3 6 -4 10 -15 10 -16 0 -20 4 -16 16 4 12 1 14 -14 9 -10 -3 -30 -1 -42 6
l-23 13 25 7 25 7 -25 2 c-14 2 -32 4 -40 5 -8 1 -32 3 -54 4 -34 1 -37 3 -25
17 12 15 11 16 -8 10 -12 -4 -46 0 -74 8 -29 9 -65 16 -80 16 -45 0 -42 17 3
18 23 1 47 7 53 13 7 8 1 9 -23 4 -25 -5 -32 -3 -32 9 0 9 6 16 14 16 7 0 20
7 27 17 13 15 9 16 -47 11 -34 -3 -68 -2 -75 4 -10 6 -6 7 11 2 l25 -7 -20 23
c-11 13 -15 20 -8 17 6 -4 22 -3 35 2 23 10 23 10 -4 10 -31 1 -38 17 -10 24
9 3 -3 3 -28 0 -25 -3 -64 -12 -87 -20 -28 -10 -47 -12 -59 -5 -14 8 -13 9 10
9 50 0 48 19 -2 21 -98 5 -119 8 -151 22 -23 9 -29 15 -19 21 10 7 10 9 0 9
-7 0 -15 -6 -18 -14 -3 -8 -15 -11 -30 -8 -28 5 -32 18 -7 26 10 3 1 4 -20 1
-25 -3 -35 0 -31 7 4 7 2 8 -4 4 -6 -4 -22 -4 -35 -1 -19 5 -23 11 -19 31 2
13 9 25 16 26 39 5 78 22 99 43 15 15 17 15 17 1 0 -9 3 -16 8 -17 42 -4 68
-12 74 -22 6 -9 8 -9 8 1 0 7 16 12 43 13 34 1 37 2 17 8 -17 5 -21 9 -12 15
6 4 18 4 25 0 9 -6 9 -4 -1 7 -9 10 -15 10 -24 1 -14 -14 -42 -16 -34 -3 3 5
18 12 32 15 15 4 33 14 41 21 8 8 25 15 39 15 13 0 24 3 24 8 0 4 -18 6 -41 4
-22 -3 -46 1 -52 7 -8 8 -3 11 18 11 21 0 26 3 16 9 -7 5 -23 7 -35 4 -21 -4
-21 -4 -1 12 19 17 19 17 -17 12 -39 -6 -60 6 -32 17 12 5 14 10 5 20 -6 7 -9
15 -7 17 3 2 -14 5 -36 5 -22 1 -44 8 -49 15 -7 11 -9 9 -9 -6 0 -15 -2 -17
-9 -6 -5 7 -14 10 -20 6 -7 -4 -19 -1 -28 7 -15 11 -16 11 -10 -5 5 -13 3 -17
-5 -14 -7 2 -12 11 -10 21 2 9 -1 16 -5 17 -4 0 -19 3 -33 5 -14 2 -31 5 -37
6 -10 1 -10 4 0 16 10 13 9 14 -11 3 -17 -9 -31 -10 -53 -2 -21 7 -28 7 -26
-2 1 -6 -10 -12 -26 -12 -30 -1 -37 19 -10 29 14 6 12 10 -12 26 l-30 20 33 0
c20 0 31 4 27 10 -7 12 -52 13 -59 2 -9 -14 -76 -1 -76 15 0 8 -5 11 -11 7 -7
-4 -9 2 -7 14 2 12 -1 21 -7 22 -5 0 -10 -5 -10 -12 0 -6 -8 -12 -18 -14 -14
-2 -16 1 -7 11 9 10 4 15 -19 20 -17 3 -36 3 -42 0 -8 -6 -8 -2 0 14 7 11 16
22 21 22 6 1 15 3 20 4 6 1 15 3 20 4 15 2 12 41 -2 42 -7 1 -39 1 -71 0 -35
0 -55 4 -52 9 4 6 -5 6 -22 -1 -20 -7 -29 -7 -31 1 -3 8 -8 8 -17 0 -18 -15
-85 -23 -85 -10 0 5 5 10 10 10 14 0 80 43 80 52 0 4 -15 2 -33 -5 -40 -15
-89 -16 -94 -1 -2 6 5 14 17 17 11 3 20 10 20 16 0 14 -17 14 -25 1 -3 -5 -11
-7 -18 -4 -7 2 -17 -6 -22 -18 -6 -12 -17 -24 -25 -26 -9 -3 -7 2 5 11 28 21
12 32 -25 17 -17 -7 -33 -10 -37 -6 -3 3 -1 6 7 6 22 0 -10 30 -34 31 -16 0
-14 3 11 12 39 15 58 33 23 22 -14 -4 -36 -8 -50 -9 -14 -1 -31 -5 -38 -10
-17 -10 -102 2 -102 15 0 5 -4 9 -10 9 -5 0 -7 -7 -4 -15 7 -18 -26 -21 -44
-3 -17 17 -15 38 5 38 9 0 14 3 10 6 -6 6 -37 6 -112 0 -17 -1 -29 -7 -27 -14
2 -13 -10 -16 -21 -5 -4 3 1 15 10 26 17 20 17 20 0 14 -10 -4 -26 -7 -35 -7
-14 0 -14 -2 -3 -9 9 -6 2 -10 -23 -13 -41 -5 -47 -2 -39 17 2 8 12 11 21 8
15 -4 15 -3 2 6 -12 9 -13 13 -2 20 21 13 -3 18 -70 16 -32 -2 -58 1 -58 5 0
15 -39 17 -66 4 -15 -8 -29 -12 -32 -9 -3 2 3 7 12 11 9 3 16 13 16 22 0 12
-3 13 -12 4 -9 -9 -14 -8 -23 4 -10 14 -12 14 -24 0 -12 -14 -11 -16 5 -16 16
0 17 -2 4 -10 -23 -15 -40 -12 -34 5 5 13 2 14 -19 6 -14 -5 -28 -7 -31 -4 -3
4 -6 2 -6 -4 0 -6 -7 -14 -16 -17 -10 -4 -13 -2 -8 6 5 8 0 9 -15 5 -13 -3
-24 0 -27 7 -6 14 -54 9 -54 -5 0 -5 -9 -9 -20 -9 -19 0 -19 -10 -19 -412 l-1
-413 46 -35 c24 -19 46 -44 49 -55 19 -95 16 -98 -52 -70 -45 19 -43 19 -43
-7 1 -18 13 -29 60 -50 70 -31 71 -36 36 -143 l-22 -70 -17 31 c-9 17 -21 52
-28 78 -6 25 -15 49 -20 52 -18 11 -9 -117 11 -164 11 -26 27 -80 35 -121 22
-105 49 -151 108 -178 l47 -23 0 -145 c0 -143 -1 -147 -31 -207 -25 -50 -33
-58 -43 -47 -14 15 -85 207 -115 309 l-19 65 -1 -72 c-1 -62 7 -95 54 -236 30
-90 55 -182 55 -203 0 -70 -26 -136 -70 -179 l-41 -40 1 -232 c1 -168 4 -231
12 -227 8 5 9 2 2 -12 -5 -11 -10 -477 -12 -1122 l-2 -1102 5120 0 5120 0 0
1315 c0 1245 -1 1315 -17 1316 -10 1 -21 1 -26 0 -4 0 -26 25 -50 56 -85 117
-284 294 -327 292 -10 0 -11 -2 -2 -6 32 -13 32 -41 -3 -175 -30 -116 -34
-127 -36 -88 l-2 45 -6 -44 c-10 -71 -29 -30 -32 66 -3 76 -1 82 24 105 15 14
27 34 27 45 0 18 -48 63 -68 63 -13 0 -46 39 -39 46 4 4 86 1 184 -5 165 -12
227 -23 361 -66 7 -3 12 5 12 20 0 21 -5 25 -30 25 -16 0 -50 10 -76 22 -42
21 -44 23 -22 29 l23 7 -25 1 c-34 2 -142 60 -113 61 12 0 27 2 35 5 7 3 28
-5 47 -17 19 -13 46 -31 60 -40 33 -21 101 -24 101 -4 0 8 -14 18 -32 21 -41
9 -148 62 -148 74 0 5 -14 14 -31 21 -21 9 -27 16 -20 23 7 7 19 6 38 -3 44
-22 146 -83 164 -97 23 -19 29 -16 29 12 0 14 -9 34 -20 45 -11 11 -22 32 -25
47 -4 16 -11 37 -17 47 -8 16 -7 18 7 12 9 -3 22 -6 29 -6 6 0 13 -12 14 -27
1 -14 4 -29 7 -31 3 -3 5 142 5 322 l0 328 -26 -6 c-17 -5 -23 -3 -19 4 3 5 2
10 -4 10 -5 0 -13 -9 -16 -20 -3 -11 -9 -21 -13 -21 -30 -6 -53 -5 -57 1 -7
11 -45 0 -45 -12 0 -5 -17 -8 -38 -7 -21 2 -43 0 -49 -4 -7 -4 -24 -5 -38 -1
-15 4 -25 2 -25 -5 0 -6 5 -10 11 -8 6 1 14 -4 16 -11 3 -7 1 -12 -4 -11 -18
4 -102 -24 -97 -32 3 -5 -6 -9 -20 -9 -26 0 -37 -19 -13 -22 13 -1 28 -4 40
-8 4 -1 10 -3 15 -4 18 -3 31 -18 26 -30 -4 -10 5 -13 35 -11 27 2 42 -2 45
-12 9 -23 -4 -35 -31 -30 -13 2 -30 -2 -38 -9 -7 -8 -15 -10 -17 -5 -2 6 -17
6 -38 1 l-35 -8 35 -2 c34 -2 34 -3 -10 -10 -27 -4 -50 -3 -57 2 -9 7 -13 7
-13 0 0 -6 -7 -9 -15 -6 -8 4 -22 1 -30 -6 -8 -7 -15 -9 -15 -4 0 5 -7 0 -15
-10 -9 -12 -15 -14 -15 -7 0 7 -6 11 -12 8 -7 -2 -12 -10 -11 -16 2 -6 -3 -11
-11 -11 -8 0 -13 6 -12 14 0 8 -3 15 -9 15 -5 1 -10 -4 -10 -11 0 -6 -8 -12
-18 -14 -10 -1 -27 -10 -36 -18 -22 -20 -35 -20 -27 0 3 9 2 12 -5 9 -6 -4 -8
-13 -5 -21 8 -20 -9 -26 -37 -13 -27 12 -70 -2 -48 -15 6 -4 11 -2 11 4 0 6 5
8 10 5 6 -3 10 -11 10 -16 0 -6 -4 -7 -10 -4 -5 3 -10 2 -10 -4 0 -6 -7 -7
-17 -4 -12 5 -14 3 -8 -7 6 -10 2 -11 -20 -6 -22 6 -26 4 -22 -8 4 -11 1 -16
-11 -16 -9 0 2 -9 26 -20 23 -10 42 -22 42 -26 0 -3 -6 -4 -14 -1 -19 7 -86
-11 -86 -23 0 -6 9 -6 23 -1 28 11 74 3 105 -17 12 -8 25 -12 29 -9 3 4 -3 10
-13 14 -19 7 -34 22 -34 36 0 10 32 8 50 -3 11 -8 7 -9 -14 -4 -21 5 -27 4
-22 -5 4 -6 18 -11 32 -11 15 0 23 -4 19 -10 -8 -13 18 -8 27 5 5 6 8 5 8 -2
0 -20 17 -15 23 6 4 16 14 18 78 17 66 -1 74 -3 77 -21 3 -20 3 -20 -13 -1
-15 19 -15 19 -15 -3 0 -20 -2 -21 -15 -11 -12 10 -15 10 -15 0 0 -7 -7 -10
-14 -7 -9 4 -17 -1 -21 -12 -8 -25 -67 -54 -77 -38 -4 6 -10 8 -14 4 -4 -4
-14 -1 -22 6 -13 10 -15 9 -10 -5 7 -17 -9 -28 -52 -35 -14 -2 -27 -9 -29 -15
-2 -6 -14 3 -26 18 l-23 29 5 -27 c4 -19 1 -28 -7 -28 -10 0 -9 -4 1 -16 12
-14 9 -16 -26 -13 -36 4 -43 9 -73 59 -47 78 -55 82 -27 14 28 -69 31 -92 10
-100 -8 -4 -15 -13 -15 -22 0 -13 -3 -12 -15 4 -15 19 -15 19 -8 -1 12 -36 23
-45 48 -35 14 5 26 6 28 2 27 -46 95 -352 112 -507 4 -33 9 -69 11 -80 4 -15
1 -14 -9 5 -8 14 -24 66 -35 117 -12 51 -44 154 -71 230 -27 76 -55 158 -62
183 -7 25 -25 65 -40 90 -15 25 -33 65 -39 90 -7 25 -15 40 -17 33 -2 -6 7
-52 21 -102 13 -50 23 -91 21 -91 -2 0 -18 26 -35 58 -76 133 -159 240 -245
312 -21 18 -16 10 15 -28 89 -106 195 -277 166 -266 -8 3 -17 12 -20 20 -3 8
-13 14 -23 14 -17 -1 -17 -1 0 -11 9 -6 15 -15 12 -20 -4 -5 -11 -6 -17 -3 -7
5 -8 2 -4 -5 5 -7 15 -10 23 -7 11 4 13 2 9 -9 -3 -9 0 -15 10 -15 8 0 17 -7
21 -16 4 -11 8 -12 13 -4 9 15 119 -203 126 -250 3 -25 -1 -45 -16 -68 l-21
-34 -36 49 c-58 78 -113 131 -195 189 l-78 55 5 92 c4 82 3 86 -6 42 -6 -27
-12 -60 -15 -72 -7 -37 -19 -27 -38 32 -22 71 -46 128 -51 123 -3 -2 0 -20 5
-39 4 -19 12 -59 15 -89 7 -50 6 -53 -9 -41 -9 8 -32 41 -51 75 -40 71 -47 68
-10 -4 31 -61 31 -70 3 -71 -16 0 -9 -6 22 -17 40 -16 46 -22 52 -57 9 -48 -2
-324 -13 -330 -4 -3 -13 20 -19 51 -7 31 -29 97 -49 148 -20 50 -48 118 -61
151 -26 66 -146 304 -162 320 -5 6 0 -12 12 -40 25 -57 110 -282 116 -305 2
-8 13 -46 24 -85 11 -38 20 -81 20 -95 0 -28 -19 -61 -26 -45 -10 23 -45 77
-49 74 -2 -2 4 -32 13 -66 28 -106 -13 -95 -43 12 -22 79 -100 263 -125 295
l-19 25 6 -25 c3 -14 11 -31 16 -38 10 -13 97 -314 92 -320 -7 -8 -35 13 -41
31 -11 35 -106 225 -98 197 4 -14 12 -37 20 -51 18 -37 54 -132 54 -145 0 -7
-48 3 -120 24 l-120 35 0 66 c-1 38 -10 99 -24 144 -25 86 -27 177 -5 296 11
59 10 65 -6 78 -11 7 -13 13 -7 13 8 0 12 13 12 33 0 17 2 47 6 66 5 23 2 36
-7 42 -11 7 -10 9 4 9 14 0 17 9 18 48 0 26 2 54 5 62 2 8 8 37 14 64 5 27 14
54 20 61 5 7 7 27 4 46 -4 19 -6 97 -4 175 2 170 -8 227 -66 357 -42 92 -54
149 -35 161 4 3 40 -19 78 -48 87 -67 104 -76 142 -76 17 0 31 -5 31 -11 0
-14 57 -65 120 -110 49 -33 120 -121 120 -148 1 -41 26 -64 74 -68 43 -3 46
-2 35 15 -6 10 -26 29 -45 41 -18 13 -43 42 -55 64 -11 23 -42 65 -68 92 -26
28 -55 62 -65 78 -10 15 -22 27 -26 27 -4 0 -23 15 -43 33 l-35 34 55 18 c31
11 74 31 97 45 74 46 96 55 111 45 7 -6 34 -28 59 -49 26 -21 49 -37 51 -34 3
2 -8 22 -25 44 -16 21 -30 42 -30 45 0 3 22 3 49 -1 49 -6 74 -22 187 -118 52
-44 183 -116 193 -106 3 3 -1 9 -8 14 -108 66 -261 194 -261 218 0 19 34 19
67 0 41 -24 68 -16 89 25 9 18 18 34 20 35 1 2 18 -1 37 -7 28 -10 41 -24 68
-74 40 -75 145 -185 161 -169 8 8 -4 27 -44 70 -30 33 -72 89 -93 125 -34 59
-43 67 -83 78 -25 7 -61 26 -80 43 -23 20 -37 27 -40 18 -5 -17 -77 -15 -92 3
-7 8 -23 15 -37 15 -37 0 -87 25 -132 65 -44 40 -57 74 -22 55 11 -5 27 -10
37 -10 13 0 14 3 4 15 -7 8 -26 15 -42 15 -51 0 -168 63 -222 118 -28 29 -48
53 -45 54 26 16 51 28 60 28 6 0 39 -24 72 -54 37 -32 76 -57 97 -61 19 -4 41
-11 49 -15 9 -5 30 0 51 11 58 31 81 16 96 -61 8 -34 21 -72 31 -82 26 -29 94
-62 120 -59 13 1 36 -7 53 -19 23 -16 30 -18 30 -7 0 19 -24 47 -80 93 -51 41
-80 80 -80 108 0 23 13 18 76 -29 46 -34 200 -104 232 -105 7 0 -7 18 -33 40
-25 22 -47 43 -48 46 -1 4 14 13 33 19 47 16 41 29 -17 36 -64 9 -104 25 -121
51 -20 27 -89 58 -134 58 -20 0 -80 16 -135 36 -54 19 -113 40 -131 46 -23 8
-35 20 -41 42 -4 17 -6 34 -4 38 8 16 117 -35 175 -81 35 -28 66 -51 70 -51 4
0 -15 22 -42 50 -29 28 -50 58 -50 70 0 27 24 21 28 -7 2 -16 13 -22 44 -26
23 -3 60 -19 85 -37 35 -26 47 -30 58 -20 19 16 60 8 128 -24 28 -14 77 -35
107 -49 30 -13 75 -41 99 -61 56 -47 64 -51 141 -71 35 -9 81 -25 102 -36 32
-16 37 -23 32 -43 -4 -18 3 -33 29 -63 19 -21 42 -54 52 -73 10 -19 36 -52 59
-75 61 -60 59 -24 -4 71 -28 43 -60 95 -71 116 -27 53 -52 76 -112 103 -29 13
-78 43 -109 67 -31 25 -81 57 -112 72 -30 15 -88 58 -128 95 -96 89 -234 168
-405 230 -181 67 -210 82 -273 146 -56 57 -57 61 -23 114 1 2 16 -8 33 -23 18
-14 43 -26 58 -25 27 0 26 0 -13 32 -73 59 -95 85 -95 111 0 37 17 32 64 -17
26 -26 58 -48 86 -56 63 -20 112 -45 134 -69 14 -16 29 -21 67 -20 27 1 49 5
49 8 0 14 -33 35 -51 32 -10 -2 -38 8 -61 21 -24 14 -73 35 -111 47 -45 14
-85 37 -120 66 -69 60 -73 86 -39 264 14 74 27 137 29 139 6 7 86 -40 118 -69
17 -16 84 -55 150 -88 125 -62 198 -113 276 -193 53 -54 104 -83 127 -74 25
11 57 15 152 21 47 3 101 12 121 21 23 9 53 13 79 10 38 -4 40 -3 26 11 -13
14 -25 14 -103 2 -48 -8 -141 -13 -206 -12 l-117 2 -81 64 c-45 35 -132 94
-195 131 -62 37 -116 75 -119 84 -3 9 -18 22 -35 28 -17 6 -34 23 -41 40 -6
15 -18 44 -26 63 l-15 35 24 -21 c21 -20 140 -94 198 -124 24 -13 25 -12 8 7
-26 29 -22 40 15 44 60 7 81 -1 105 -37 23 -36 58 -56 120 -69 25 -5 32 -3 30
7 -2 9 8 12 39 10 23 -2 50 1 59 6 14 8 9 15 -32 48 -27 22 -69 48 -92 58 -43
19 -57 46 -24 46 11 0 66 -24 123 -52 88 -45 113 -53 160 -53 46 0 63 -6 92
-28 53 -40 122 -67 156 -61 20 4 46 -3 90 -26 35 -17 72 -30 84 -28 41 6 -102
68 -194 84 -74 13 -88 19 -124 53 -37 36 -45 39 -105 43 -60 4 -71 8 -142 58
-43 30 -78 57 -78 60 0 8 177 6 186 -2 4 -5 23 -8 42 -8 19 0 51 -9 71 -21
l36 -21 -32 31 c-18 16 -28 33 -24 36 17 10 166 30 221 29 30 -1 74 -4 98 -9
23 -4 42 -4 42 1 0 5 -19 24 -41 42 -33 28 -51 35 -102 40 -50 4 -71 12 -117
44 -30 21 -81 57 -112 79 -32 22 -58 44 -58 49 0 14 66 50 93 50 14 0 38 -5
53 -10 37 -14 42 -5 8 13 l-28 15 39 11 c64 18 106 13 164 -19 30 -17 62 -28
71 -25 15 5 96 -36 218 -109 45 -27 54 -46 23 -46 -11 0 -22 -4 -25 -9 -11
-17 64 -9 88 10 13 10 35 19 49 19 46 0 87 12 87 26 0 8 5 14 10 14 6 0 10 4
10 9 0 5 -32 0 -72 -10 l-71 -19 -61 34 c-34 18 -79 39 -101 46 -22 7 -63 25
-91 40 -30 17 -60 27 -71 24 -13 -4 -23 0 -26 11 -5 12 -3 14 9 7 10 -6 31 -4
58 5 39 14 89 13 146 -3 22 -6 20 -1 -17 37 l-43 43 -42 -12 c-40 -10 -44 -10
-61 11 -10 12 -25 30 -33 40 -19 24 -18 27 11 27 14 0 43 12 65 26 34 22 47
26 82 20 23 -4 56 -14 74 -22 29 -14 35 -14 61 -1 27 14 34 13 98 -14 38 -16
73 -29 77 -29 4 0 8 15 8 33 0 32 -2 34 -67 54 -105 33 -347 89 -458 107 -164
26 -208 43 -189 73 10 15 25 18 100 16 l87 -1 -31 25 c-18 13 -32 28 -32 33 0
13 241 0 294 -17 27 -9 99 -17 163 -19 l114 -4 -23 29 c-27 35 -44 37 -139 15
-70 -16 -71 -16 -140 10 -39 14 -84 26 -101 26 -17 0 -59 5 -93 12 l-63 11 30
26 c28 23 39 25 119 26 56 0 92 4 100 12 22 22 1 27 -56 14 -41 -9 -60 -10
-69 -2 -23 19 -193 21 -279 3 -92 -18 -135 -11 -261 44 -44 20 -142 61 -216
91 -165 67 -197 81 -234 107 -32 24 -200 225 -193 233 9 8 131 -18 202 -44
109 -39 259 -83 265 -77 10 11 -34 34 -117 59 -47 15 -101 33 -120 42 l-36 14
39 24 38 23 -64 -5 c-50 -4 -90 1 -170 22 -148 37 -178 57 -268 175 -17 21
-32 30 -52 30 -18 0 -39 10 -55 26 -14 14 -30 22 -36 18 -7 -4 -9 0 -5 14 7
22 -3 27 -64 34 -21 3 -25 8 -22 33 1 17 -7 48 -18 70 -11 21 -20 47 -20 57 0
29 -46 40 -152 36 l-96 -4 -6 29 c-11 56 -6 85 30 152 114 215 -8 435 -240
435 -34 0 -85 -7 -115 -15 -62 -16 -161 -64 -161 -78 0 -5 8 -6 18 -2 58 25
137 44 144 37 6 -6 -9 -15 -36 -23 -24 -7 -43 -16 -41 -19 2 -4 -12 -12 -31
-19 -18 -7 -34 -17 -34 -22 0 -6 -5 -7 -10 -4 -6 4 -10 3 -9 -2 4 -26 -2 -63
-11 -58 -5 3 -7 0 -4 -9 6 -17 -29 -56 -51 -56 -8 0 -22 -11 -30 -24 -15 -23
-15 -27 1 -51 16 -25 16 -26 -26 -76 l-42 -50 23 -25 c22 -23 22 -24 4 -44
-16 -18 -17 -24 -7 -41 7 -11 10 -29 7 -39 -4 -13 1 -22 15 -30 13 -7 21 -20
20 -33 -5 -56 11 -63 90 -42 103 28 130 11 68 -40 -18 -15 -27 -24 -20 -20 13
7 121 -16 177 -37 17 -7 60 -26 98 -44 37 -18 83 -38 102 -44 19 -6 37 -15 40
-20 3 -5 -34 7 -82 26 -160 64 -235 86 -304 87 -53 2 -65 5 -57 15 8 9 7 11
-6 6 -9 -3 -16 -14 -16 -24 0 -10 -6 -18 -12 -17 -63 2 -57 -15 13 -38 28 -9
48 -19 45 -22 -3 -3 -18 -1 -33 4 -28 10 -65 4 -63 -10 0 -4 -4 -15 -10 -25
-10 -15 -10 -15 -5 4 5 18 2 20 -27 16 -28 -4 -30 -6 -13 -12 19 -7 18 -8 -4
-11 -24 -4 -24 -4 -6 -23 19 -18 19 -18 -5 -11 -14 4 -22 4 -18 0 8 -9 -8 -27
-40 -44 -16 -9 -21 -18 -17 -32 4 -13 -2 -30 -19 -49 -25 -31 -25 -66 0 -56 8
3 14 1 14 -4 0 -6 5 -10 11 -10 5 0 7 5 4 10 -3 6 1 10 9 10 9 0 16 -4 16 -10
0 -5 8 -7 18 -4 13 5 14 4 3 -4 -8 -6 -29 -9 -46 -7 -50 4 -62 -8 -41 -42 17
-27 17 -27 -1 -7 -31 35 -45 18 -23 -27 l20 -39 -32 0 -33 0 46 -23 c58 -30
97 -57 82 -57 -7 0 -15 5 -18 10 -3 6 -13 10 -21 10 -8 0 -12 -4 -9 -10 9 -15
-13 -12 -40 6 -31 20 -31 19 0 -50 15 -33 29 -91 35 -142 6 -55 17 -99 30
-122 20 -33 20 -39 8 -81 -8 -30 -12 -92 -11 -181 2 -96 -1 -137 -10 -142 -8
-5 -6 -8 6 -8 9 0 17 3 17 8 0 12 88 44 101 36 7 -4 9 -3 6 3 -4 6 4 15 18 21
18 8 26 8 35 -4 10 -12 8 -14 -13 -14 -14 0 -27 -5 -29 -11 -2 -6 -16 -12 -31
-12 -15 -1 -27 -6 -27 -10 0 -4 -6 -7 -12 -6 -7 1 -24 -2 -38 -8 -37 -16 -242
-62 -264 -60 -23 2 -37 -38 -31 -92 17 -149 29 -186 54 -175 27 11 124 25 155
22 l29 -3 -38 -25 c-43 -28 -47 -42 -14 -50 l23 -6 -23 -21 c-27 -25 -22 -53
9 -53 12 0 18 -5 15 -10 -4 -6 -10 -8 -15 -5 -10 6 -50 -30 -50 -45 0 -5 5
-10 10 -10 16 0 12 -27 -5 -34 -23 -9 -18 -30 13 -47 15 -9 77 -29 137 -44
119 -30 146 -41 75 -30 -25 3 -58 9 -75 11 -56 9 -110 26 -142 44 l-33 19 0
-31 c0 -26 -3 -29 -12 -20 -10 10 -16 -2 -26 -60 -18 -109 -20 -130 -11 -162
10 -35 5 -43 -16 -26 -25 21 -39 -3 -39 -64 0 -30 -3 -53 -7 -50 -4 2 -5 -6
-3 -18 2 -13 -4 -5 -15 17 l-18 40 -26 -58 c-15 -32 -35 -69 -46 -84 -27 -33
-36 -85 -21 -113 10 -18 9 -21 -1 -15 -9 6 -11 3 -5 -11 5 -14 0 -12 -16 7
-13 15 -30 29 -39 32 -12 4 -11 -4 8 -42 26 -54 29 -84 8 -105 -14 -14 -12
-15 15 -11 16 2 33 -1 36 -7 5 -7 2 -8 -6 -3 -10 6 -12 3 -7 -11 7 -18 6 -18
-7 -1 -13 17 -32 24 -22 8 3 -4 -6 -6 -20 -3 -14 2 -28 11 -31 18 -8 22 -53
-51 -46 -75 4 -16 2 -20 -10 -16 -8 4 -17 -1 -21 -11 -6 -15 -8 -15 -28 2
l-22 19 17 -25 c31 -45 37 -67 26 -100 -6 -17 -8 -42 -3 -58 12 -46 13 -51 1
-49 -12 2 -15 -41 -6 -73 3 -11 -4 -15 -23 -15 -14 0 -29 -3 -32 -6 -4 -3 -18
-46 -32 -95 -32 -109 -29 -163 15 -255 29 -63 50 -144 66 -252 5 -40 9 -46 23
-38 21 10 185 51 204 50 7 0 -30 -13 -83 -29 -53 -15 -105 -33 -117 -39 -26
-14 -29 -39 -5 -48 14 -5 156 13 243 32 l25 6 -25 -11 c-14 -6 -68 -20 -120
-31 -146 -30 -134 -20 -125 -103 4 -39 6 -92 6 -117 -2 -61 12 -95 51 -120 30
-19 25 -20 -17 -3 -11 4 -15 -1 -15 -19 0 -29 16 -45 67 -63 21 -7 30 -13 20
-14 -10 0 -34 7 -53 15 -26 11 -34 11 -32 2 3 -6 27 -20 54 -30 l49 -18 -47 4
c-51 5 -59 -4 -39 -42 6 -10 11 -41 12 -70 2 -39 8 -56 23 -66 17 -13 18 -15
3 -21 -9 -3 -17 -16 -18 -27 -1 -18 -7 -179 -9 -224 0 -7 -9 -13 -21 -13 -12
0 -35 -6 -52 -14 -93 -39 -121 -50 -169 -61 -45 -10 -53 -15 -50 -32 3 -20 -1
-20 -63 -16 -67 6 -72 4 -55 -26 8 -16 5 -20 -20 -24 -38 -8 -73 -43 -67 -68
4 -15 -3 -21 -31 -29 -65 -18 -65 -17 -58 58 7 71 68 572 86 707 45 339 174
1388 200 1625 39 350 63 548 92 756 l21 152 61 12 c33 7 79 21 100 31 35 17
41 17 56 4 24 -22 29 -19 26 18 -2 17 -1 22 1 9 5 -23 43 -52 43 -32 0 8 11 9
31 5 31 -7 31 -7 25 26 l-7 34 16 -34 c13 -28 17 -31 30 -21 8 7 24 10 36 7
18 -5 20 -2 15 16 -7 21 -32 158 -42 225 -5 34 -27 43 -38 16 -3 -9 -7 -34 -7
-57 l-1 -42 -8 48 c-10 54 -14 62 -29 52 -6 -3 -12 -41 -12 -83 l-1 -77 -9 55
c-15 94 -19 104 -32 91 -6 -6 -14 -51 -18 -99 l-6 -87 -1 98 c-1 53 -6 97 -11
97 -5 0 -11 -4 -13 -10 -1 -5 -29 15 -61 45 -39 37 -66 55 -83 55 -25 0 -26 2
-20 48 3 26 22 180 41 342 20 162 49 372 65 465 16 94 36 220 45 280 29 202
47 299 60 325 9 17 13 66 14 145 0 83 8 164 26 263 14 78 25 148 25 155 0 6 5
4 11 -6 7 -13 6 -55 -5 -145 -20 -158 -33 -341 -26 -352 3 -5 11 -6 17 -2 6 4
13 62 17 147 3 77 9 181 12 230 4 54 1 127 -6 183 -7 51 -10 95 -7 98 15 15
67 -238 67 -328 0 -37 4 -57 10 -53 6 4 8 33 4 73 -3 37 -1 81 4 97 7 24 2 51
-30 140 -37 105 -45 155 -32 218 5 24 10 27 43 27 l38 0 -4 163 c-8 269 -18
443 -24 432z m2011 -2950 c86 -52 104 -56 98 -20 -9 45 18 28 82 -51 39 -48
58 -80 52 -86 -16 -16 -160 27 -272 81 -113 56 -152 81 -134 88 6 2 20 10 30
18 32 24 65 17 144 -30z m-714 -387 l111 -109 13 -105 c6 -57 13 -145 15 -194
3 -85 2 -90 -16 -85 -29 10 -24 -20 9 -45 19 -15 21 -19 7 -14 -11 4 -33 8
-48 8 -23 1 -31 9 -46 41 -10 22 -28 49 -40 59 -37 34 -23 66 30 66 10 0 19 4
19 9 0 12 -25 32 -32 26 -3 -3 -11 2 -19 12 -12 14 -12 16 0 8 10 -5 12 -4 7
4 -4 6 -11 9 -16 6 -5 -3 -12 1 -17 8 -4 7 -16 17 -26 20 -10 4 -15 12 -12 18
5 8 10 8 18 0 19 -19 27 -12 21 18 -4 17 -1 32 5 36 16 9 -5 35 -28 35 -14 1
-13 2 2 11 14 8 16 14 7 24 -7 8 -9 19 -5 25 5 9 -23 15 -48 11 -5 -1 -6 3 -2
9 3 5 15 10 26 10 31 0 17 24 -15 28 -20 3 -26 8 -22 18 10 27 -24 74 -77 107
-45 28 -49 32 -29 35 20 3 23 8 18 28 l-7 25 43 -22 c23 -12 92 -71 154 -131z
m1015 72 c36 -17 72 -27 84 -24 14 3 35 -7 67 -31 50 -39 60 -42 129 -31 37 6
49 4 63 -9 9 -10 16 -25 14 -34 -7 -35 -213 -22 -302 20 -52 24 -136 100 -136
122 0 23 8 22 81 -13z m-2105 -1720 l19 -35 5 74 5 74 29 -24 c30 -26 35 -57
21 -138 -5 -31 -2 -48 17 -80 21 -37 26 -40 55 -35 29 5 33 3 51 -33 10 -21
22 -51 26 -68 7 -29 92 -125 111 -125 22 0 84 -61 90 -90 4 -17 10 -30 15 -30
18 0 -14 77 -55 135 -23 33 -45 74 -49 92 -4 17 -14 37 -22 44 -8 6 -14 24
-14 40 0 16 -7 32 -17 38 -13 7 -14 12 -6 23 7 8 8 30 4 60 -4 25 -4 54 1 62
20 35 45 16 104 -75 33 -50 80 -118 105 -152 25 -34 49 -71 54 -82 8 -18 9
-17 13 9 2 17 -7 53 -23 88 l-27 60 24 16 c12 9 34 27 47 40 13 13 25 22 26
20 2 -2 17 -49 33 -105 16 -56 40 -116 52 -133 18 -25 28 -67 46 -188 13 -87
32 -199 42 -250 11 -52 17 -102 15 -113 -3 -10 1 -26 8 -35 10 -13 10 -17 -1
-24 -23 -14 -3 -40 32 -42 l33 -1 -32 -4 c-27 -4 -33 -9 -33 -28 0 -32 11 -59
19 -46 4 5 6 -8 6 -29 0 -29 -4 -40 -18 -44 -33 -8 -16 -40 21 -42 19 -1 39
-7 44 -12 8 -8 5 -9 -9 -6 -26 7 -37 -10 -23 -36 8 -14 8 -26 0 -41 -9 -15 -8
-24 1 -35 6 -8 8 -14 3 -14 -5 0 -2 -5 6 -10 10 -6 11 -10 3 -10 -22 0 -15
-58 7 -70 24 -13 17 -30 -11 -30 -19 0 -20 -5 -17 -70 2 -53 0 -70 -10 -70 -9
0 -12 -11 -10 -32 2 -18 -1 -33 -7 -33 -19 0 -57 -47 -52 -64 3 -14 -2 -16
-30 -13 -33 4 -33 4 -33 -38 l0 -43 -72 7 c-164 15 -408 48 -488 67 -47 11
-104 20 -126 21 l-41 0 -12 87 c-7 47 -21 124 -32 171 -19 80 -28 297 -14 320
3 5 -3 13 -12 19 -17 10 -17 10 0 11 14 0 17 11 19 73 3 108 3 116 11 123 11
11 8 44 -3 44 -6 0 -6 8 0 23 17 40 42 200 47 304 6 122 -9 204 -68 353 -40
105 -48 159 -26 182 7 7 28 35 47 62 l33 49 12 -39 c6 -21 20 -55 31 -74z
m-6641 -580 c21 -40 20 -45 -21 -90 -20 -22 -34 -43 -31 -46 8 -9 40 15 67 51
14 18 28 31 31 29 4 -2 12 -24 18 -49 10 -40 9 -52 -7 -88 -27 -59 -79 -127
-97 -127 -27 0 -38 42 -28 107 7 47 6 62 -5 73 -28 26 10 170 45 170 7 0 19
-13 28 -30z m261 -54 c-2 -19 -13 -47 -24 -63 -11 -15 -31 -49 -46 -76 -28
-49 -37 -51 -82 -15 -21 16 45 166 67 152 5 -3 9 -1 9 4 0 6 17 14 38 20 20 5
38 10 40 11 1 1 0 -14 -2 -33z m141 -40 c-3 -8 -9 -45 -12 -83 l-7 -69 -83
-52 c-81 -51 -154 -87 -161 -79 -2 2 12 28 30 58 19 30 46 75 61 100 15 26 37
51 48 56 12 6 42 27 65 47 46 37 68 46 59 22z m382 -118 c-14 -49 -11 -52 17
-21 17 19 22 22 16 8 -23 -48 -90 -83 -254 -135 -130 -42 -128 -42 -128 36 0
38 4 45 30 59 17 9 76 24 133 34 56 11 110 22 119 26 14 6 19 0 24 -34 7 -45
16 -46 22 -4 3 26 19 63 27 63 2 0 -1 -15 -6 -32z m-645 -43 c18 -13 18 -17 5
-42 -13 -26 -52 -68 -116 -125 l-30 -26 -21 37 -22 38 38 27 c21 14 51 48 67
75 31 51 34 52 79 16z m833 9 c0 -24 -145 -162 -197 -188 -52 -27 -340 -120
-347 -112 -3 2 -2 23 2 46 8 47 37 70 119 95 77 23 173 63 280 117 54 27 105
47 112 44 8 -3 14 -1 14 4 0 6 4 10 8 10 5 0 9 -7 9 -16z m-1154 -48 c20 -4
46 -16 56 -27 34 -37 40 -119 16 -209 -8 -30 -15 -88 -15 -128 0 -56 -5 -83
-22 -115 l-23 -42 -5 61 c-6 70 -19 90 -63 99 -74 15 -78 20 -98 120 -16 76
-12 114 16 184 14 36 25 73 25 82 0 16 2 16 38 -1 20 -9 54 -20 75 -24z m578
-97 c1 -66 -3 -111 -15 -145 -15 -45 -22 -53 -64 -73 -35 -17 -51 -31 -63 -59
-20 -47 -121 -174 -131 -164 -17 17 -60 174 -69 252 -15 123 -10 132 93 164
48 15 117 47 162 76 44 27 81 48 83 47 1 -2 3 -46 4 -98z m804 -41 c56 -25 13
-50 -243 -140 -190 -67 -337 -113 -526 -164 -49 -14 -118 -40 -152 -58 l-63
-33 21 41 c38 77 86 132 138 160 28 15 140 56 249 92 158 51 212 64 261 64 35
0 101 9 149 20 95 21 122 27 133 29 4 0 19 -4 33 -11z m255 -107 c0 -5 -35
-11 -77 -14 -53 -4 -111 -18 -178 -42 -189 -69 -188 -69 -246 -59 l-54 10 72
17 c40 9 110 32 155 50 60 25 93 33 119 30 20 -3 40 0 43 6 8 12 166 14 166 2z
m-1419 -235 c11 -25 24 -69 29 -98 9 -48 7 -62 -23 -148 -31 -93 -33 -95 -79
-117 -33 -16 -54 -35 -72 -65 -25 -44 -178 -190 -157 -150 6 11 11 38 11 59 0
40 24 112 64 192 13 25 29 77 35 115 7 38 21 87 33 110 27 53 106 146 125 146
8 0 23 -20 34 -44z m8919 -386 c0 -16 7 -20 36 -20 l36 0 -8 -82 c-5 -46 -9
-120 -8 -165 1 -46 0 -83 -2 -83 -1 0 -8 33 -14 73 -7 39 -28 125 -46 190 -19
65 -34 120 -34 123 0 3 9 0 20 -6 11 -6 20 -20 20 -30z m154 -32 c16 -30 16
-39 3 -102 -9 -38 -21 -72 -28 -77 -10 -6 -11 -11 -3 -19 13 -13 6 -62 -8 -54
-6 4 -7 -2 -3 -15 6 -21 -33 -206 -42 -197 -6 5 17 479 24 489 11 18 41 4 57
-25z m-640 -33 c16 -11 38 -25 49 -32 19 -11 18 -12 -14 -21 l-34 -9 51 -6
c28 -4 54 -10 58 -14 4 -4 -10 -18 -31 -30 -30 -19 -33 -23 -13 -18 27 6 126
-36 113 -48 -3 -4 -1 -7 5 -7 7 0 21 -9 33 -21 17 -17 19 -25 11 -43 -6 -11
-18 -38 -26 -58 -17 -43 -15 -43 -84 -23 -63 19 -66 35 -22 121 l30 59 -31
-35 c-16 -19 -35 -54 -42 -78 -15 -55 -39 -53 -48 3 l-6 40 -2 -49 c0 -27 -3
-47 -6 -44 -3 2 -12 56 -20 118 -16 120 -20 242 -7 225 4 -6 20 -19 36 -30z
m777 -35 c6 0 7 -4 4 -10 -3 -5 0 -10 7 -10 10 0 14 -20 14 -77 1 -64 0 -71
-7 -38 -5 28 -6 15 -4 -45 3 -47 2 -78 -2 -70 -3 8 -26 41 -50 73 -24 31 -41
57 -36 58 4 0 -3 5 -16 10 -17 7 -21 14 -16 27 3 9 9 40 11 67 8 88 11 91 50
51 19 -20 40 -36 45 -36z m349 -201 c24 -35 56 -94 72 -130 24 -58 26 -71 16
-100 -10 -29 -12 -31 -20 -13 -6 15 -7 13 -3 -8 4 -21 0 -28 -16 -33 -17 -6
-19 -9 -8 -16 8 -5 9 -9 4 -9 -6 0 -33 22 -60 50 -55 56 -72 59 -31 5 15 -19
20 -32 12 -29 -8 3 -17 1 -21 -5 -3 -6 -1 -11 6 -11 8 0 8 -4 1 -13 -8 -9 -6
-18 6 -33 18 -22 62 -39 62 -23 0 5 -4 9 -8 9 -5 0 -19 9 -32 20 -21 18 -20
25 3 21 4 0 7 4 7 9 0 6 12 0 27 -14 21 -20 27 -35 28 -71 0 -41 -1 -44 -20
-39 -38 12 -75 35 -76 47 -1 6 -2 17 -4 22 -1 6 -3 16 -3 23 -1 6 -7 12 -13
12 -22 0 -39 33 -26 49 10 12 9 13 -7 8 -17 -7 -17 -6 -5 10 12 15 12 16 -3
10 -9 -3 -22 1 -28 8 -15 18 -5 48 13 42 16 -5 16 -33 -1 -29 -8 1 -11 -2 -7
-8 5 -8 11 -8 19 -1 9 7 17 4 30 -10 32 -38 29 -11 -5 36 -25 35 -31 50 -23
62 11 18 24 21 112 24 64 2 68 4 52 29 -7 11 -18 12 -57 5 -26 -6 -58 -9 -70
-7 -20 3 -22 6 -12 25 l12 22 -24 -21 c-13 -11 -35 -20 -49 -20 -24 1 -25 3
-23 61 2 58 1 59 -10 25 -17 -48 -34 -76 -43 -68 -6 7 7 90 38 232 l11 50 67
-70 c37 -39 87 -100 110 -135z m-8024 -365 c-2 -6 8 -17 22 -24 15 -6 49 -26
76 -43 48 -32 48 -32 42 -77 -3 -25 -22 -91 -42 -147 l-36 -102 -26 24 c-16
15 -23 29 -19 39 4 10 1 19 -8 23 -12 4 -14 17 -9 69 4 42 3 64 -4 64 -5 0
-12 7 -16 15 -4 13 -2 14 14 5 11 -6 39 -13 62 -16 l43 -5 -32 15 c-18 8 -33
21 -33 27 0 7 -3 10 -6 6 -9 -9 -73 52 -80 77 -3 12 -15 31 -27 43 -13 14 -22
41 -25 75 l-4 53 56 -55 c31 -30 54 -60 52 -66z m-1326 -64 c29 -34 50 -64 46
-68 -4 -3 -11 0 -16 8 -7 11 -10 6 -10 -19 0 -30 -2 -32 -16 -20 -15 12 -16
10 -10 -18 10 -44 -1 -73 -26 -73 -19 0 -20 4 -15 44 4 24 3 47 -1 51 -4 3 -8
19 -8 33 -1 15 -7 41 -14 58 -13 31 -9 64 9 64 5 0 33 -27 61 -60z m1232 -22
c44 -49 69 -104 67 -146 -3 -60 -10 -81 -25 -75 -9 3 -18 -6 -25 -23 -6 -16
-13 -23 -16 -16 -3 6 -9 10 -14 6 -5 -3 -9 2 -9 11 0 9 -6 15 -12 14 -27 -3
-38 2 -38 17 0 8 -4 12 -10 9 -5 -3 -10 1 -10 10 0 9 4 14 9 11 11 -7 34 83
30 121 -3 30 9 93 18 93 3 0 19 -15 35 -32z m3614 -90 c22 -42 18 -56 -13 -50
-27 4 -27 4 -9 -11 19 -14 19 -15 0 -21 -11 -3 -30 -20 -42 -36 l-23 -30 -113
0 c-110 0 -113 1 -126 25 -12 23 -11 28 11 51 48 52 224 135 250 118 5 -3 9 0
9 7 0 17 39 -20 56 -53z m-5289 36 c5 -13 7 -13 14 -2 6 9 9 5 9 -14 0 -15 5
-30 11 -34 18 -11 1 -69 -39 -136 -36 -61 -36 -62 -43 -32 -3 17 -13 45 -21
62 -14 26 -14 33 -2 43 7 6 13 14 12 17 -4 16 15 52 27 52 22 0 29 22 11 32
-9 5 -16 13 -16 18 0 16 30 11 37 -6z m4409 -97 c-11 -24 -27 -59 -34 -78 -31
-80 -45 -107 -67 -135 -23 -27 -24 -28 -25 -7 0 12 6 24 13 27 6 3 2 4 -11 3
-18 -2 -27 7 -43 38 -10 22 -17 31 -13 20 3 -11 7 -28 9 -39 3 -10 9 -24 16
-32 13 -16 8 -83 -10 -128 -15 -36 -23 -28 -27 26 -6 71 -28 178 -36 178 -4 0
-8 4 -8 9 0 6 15 11 33 13 25 3 28 6 14 12 -21 10 -82 -17 -96 -42 -5 -9 -12
-14 -15 -12 -10 11 46 70 67 70 15 0 18 3 9 8 -34 22 111 92 191 92 14 0 29 5
32 10 3 6 10 10 14 10 5 0 -1 -19 -13 -43z m-1346 -7 c18 0 68 -88 96 -168
l29 -83 -25 -19 c-13 -10 -29 -18 -35 -17 -5 1 -10 -8 -10 -20 0 -11 -3 -25
-7 -29 -5 -4 -8 4 -8 18 0 28 -35 50 -68 41 -18 -4 -22 6 -46 109 -39 172 -40
160 13 179 37 13 47 13 49 2 2 -7 7 -13 12 -13z m-474 -60 c5 -5 23 -11 39
-12 37 -3 45 -13 45 -60 0 -46 -13 -56 -29 -21 -6 14 -14 23 -18 20 -3 -4 0
-13 6 -21 19 -23 -2 -26 -47 -6 -38 17 -41 18 -33 2 5 -9 32 -30 60 -47 40
-23 51 -34 51 -55 -1 -22 -2 -23 -13 -9 -7 9 -38 31 -70 49 -56 31 -59 35 -53
64 7 32 24 47 66 57 25 6 25 6 -8 21 -18 8 -29 17 -25 21 9 10 17 9 29 -3z
m294 -71 c35 -6 29 -14 -15 -21 -12 -2 -21 -12 -23 -25 -3 -17 3 -24 25 -29
l28 -7 -35 -12 c-40 -13 -50 -40 -24 -60 16 -11 15 -12 -9 -12 -29 0 -33 11
-18 49 8 23 -9 55 -23 41 -3 -4 -15 2 -25 11 -11 10 -25 15 -30 11 -7 -4 -11
12 -11 48 l0 54 51 -5 c46 -4 51 -3 57 19 6 21 7 18 12 -16 5 -37 8 -40 40
-46z"/>
<path d="M1770 9193 c0 -10 37 -74 81 -139 81 -121 142 -158 274 -168 44 -4
106 -9 137 -12 l56 -6 -106 110 c-116 119 -160 152 -237 176 -53 17 -205 46
-205 39z"/>
<path d="M9116 8779 c56 -88 97 -134 133 -148 14 -6 67 -17 117 -25 50 -9 100
-19 110 -23 12 -4 3 11 -23 39 -23 25 -48 59 -56 75 -21 40 -98 109 -142 127
-19 8 -70 18 -111 22 l-75 7 47 -74z"/>
<path d="M1430 8510 c-157 -9 -218 -30 -285 -99 -21 -22 -45 -41 -52 -41 -7 0
-13 -7 -13 -16 0 -8 4 -12 10 -9 5 3 48 -3 96 -15 128 -30 151 -28 221 24 33
24 76 64 97 89 21 26 46 49 57 52 18 6 28 27 12 23 -5 0 -69 -4 -143 -8z"/>
<path d="M8770 8343 c-8 -3 -44 -19 -80 -36 -36 -16 -78 -33 -94 -36 l-29 -6
33 -38 c38 -44 78 -67 116 -67 49 0 106 23 137 57 23 24 39 33 55 30 37 -7 34
9 -9 47 -54 49 -90 63 -129 49z"/>
<path d="M2078 8260 c-20 -11 -58 -42 -85 -70 -26 -27 -55 -50 -63 -50 -28 -1
52 -30 82 -30 58 0 127 80 128 148 0 27 -13 27 -62 2z"/>
<path d="M1325 7511 c-33 -3 -73 -15 -90 -25 -27 -16 -125 -126 -125 -139 0
-3 28 1 63 9 65 15 119 51 170 111 16 18 35 33 42 33 8 0 17 5 20 10 3 6 0 9
-7 8 -7 0 -40 -4 -73 -7z"/>
<path d="M3175 6633 c-49 -10 -72 -26 -100 -68 -17 -25 -33 -45 -37 -45 -5 0
-8 -4 -8 -10 0 -5 20 -10 45 -10 47 0 98 20 125 49 21 21 60 78 60 85 0 7 -54
6 -85 -1z"/>
<path d="M4305 3385 c-20 -24 -61 -43 -48 -22 4 6 0 8 -10 4 -10 -4 -40 -2
-69 3 -39 8 -54 7 -60 -2 -6 -10 -8 -10 -8 1 0 8 -7 11 -20 8 -10 -3 -27 1
-37 8 -12 9 -23 10 -35 4 -10 -5 -27 -5 -42 1 -32 12 -45 -5 -22 -28 16 -16
17 -16 11 0 -6 15 -3 16 27 7 18 -5 50 -10 71 -11 21 -1 40 -5 43 -9 2 -5 12
-5 21 -2 10 4 14 2 10 -4 -4 -6 0 -14 9 -17 9 -3 12 -2 9 5 -4 6 3 7 22 3 15
-4 37 -6 48 -5 11 2 30 4 42 5 11 0 19 5 16 9 -5 9 43 -1 69 -15 28 -14 98
-18 95 -5 -1 7 7 12 19 11 11 0 26 6 33 13 9 11 6 13 -18 13 -16 0 -33 5 -36
11 -4 6 -20 8 -38 4 -24 -5 -28 -4 -17 4 12 9 10 11 -12 11 -16 0 -28 -4 -28
-10 0 -5 -6 -10 -14 -10 -9 0 -12 7 -9 20 7 26 3 25 -22 -5z"/>
<path d="M1273 3117 c-3 -5 -11 -6 -19 -3 -8 3 -14 2 -14 -3 0 -7 -24 -13 -95
-23 -11 -2 -23 -7 -27 -12 -4 -6 -13 -4 -22 3 -10 9 -16 9 -16 3 0 -6 -17 -14
-37 -17 -87 -13 -143 -27 -143 -35 0 -14 40 -32 56 -26 7 3 13 0 11 -6 -1 -6
4 -13 12 -16 9 -3 11 0 6 8 -6 9 -4 11 4 5 19 -11 130 -12 135 0 2 6 16 -1 32
-15 16 -14 23 -18 17 -10 -18 20 -16 35 2 20 8 -7 15 -18 15 -25 0 -6 10 -20
22 -31 l22 -19 -22 36 c-12 20 -22 41 -22 46 0 5 19 9 43 9 24 1 48 4 55 7 6
4 13 4 16 -1 3 -5 23 -7 46 -5 38 3 40 2 30 -16 -5 -11 -19 -23 -31 -26 -11
-4 -18 -9 -15 -12 2 -3 19 2 37 11 24 12 35 13 45 5 11 -9 14 -8 14 4 0 8 7
20 15 27 12 10 15 10 15 -4 0 -9 -6 -16 -12 -16 -7 0 0 -7 16 -15 32 -17 51
-20 24 -4 -10 5 -18 17 -18 24 0 18 16 20 23 3 4 -10 8 -10 15 0 8 12 17 12
58 0 43 -12 49 -17 46 -38 -2 -14 -8 -26 -13 -28 -5 -2 -9 -8 -9 -14 0 -7 5
-7 13 1 8 6 17 8 21 4 4 -4 4 0 0 10 -9 24 14 51 32 36 7 -6 18 -8 25 -4 6 4
15 1 20 -6 8 -12 11 -12 19 1 8 13 11 13 22 0 10 -11 27 -14 71 -10 l58 5 -33
17 c-73 37 -150 68 -169 68 -12 0 -17 4 -13 11 4 8 0 9 -15 4 -15 -4 -21 -3
-19 7 2 8 -4 12 -14 10 -10 -2 -18 2 -18 8 0 5 -9 10 -20 10 -12 0 -17 5 -14
14 4 9 -2 14 -18 15 -29 0 -103 8 -103 11 0 6 -158 4 -162 -3z"/>
<path d="M4775 2615 c4 -11 9 -38 12 -60 2 -22 7 -47 10 -55 4 -8 6 -22 5 -30
-1 -10 0 -11 4 -2 4 8 19 1 47 -23 23 -20 52 -38 64 -41 13 -4 23 -11 23 -18
1 -6 6 -5 13 4 7 8 30 25 51 37 22 12 43 31 48 42 6 18 4 21 -23 21 -39 0 -68
-16 -78 -43 -8 -20 -10 -18 -20 19 -9 35 -49 88 -55 74 -3 -6 -76 43 -76 51 0
3 -7 14 -16 25 -15 19 -16 19 -9 -1z"/>
</g>
</svg>
